<svg width="48" height="48" viewBox="0 0 48 48" fill="none" xmlns="http://www.w3.org/2000/svg">
<mask id="mask0_46_309" style="mask-type:alpha" maskUnits="userSpaceOnUse" x="0" y="0" width="48" height="48">
<rect width="48" height="48" fill="#D9D9D9"/>
</mask>
<g mask="url(#mask0_46_309)">
<path d="M26.7075 25.323H35.6615V23.723H26.7075V25.323ZM26.7075 19.7845H35.6615V18.1845H26.7075V19.7845ZM11.1385 29.8155H22.769V28.3345C22.769 27.7011 22.1832 27.123 21.0115 26.6C19.8398 26.077 18.479 25.8155 16.929 25.8155C15.379 25.8155 14.0263 26.0686 12.871 26.575C11.716 27.0813 11.1385 27.6678 11.1385 28.3345V29.8155ZM16.9645 23.3845C17.7008 23.3845 18.3165 23.1335 18.8115 22.6315C19.3065 22.1298 19.554 21.5106 19.554 20.774C19.554 20.0373 19.303 19.4216 18.801 18.927C18.299 18.432 17.6797 18.1845 16.943 18.1845C16.2067 18.1845 15.591 18.4355 15.096 18.9375C14.6013 19.4395 14.354 20.0586 14.354 20.795C14.354 21.5316 14.605 22.1475 15.107 22.6425C15.6087 23.1371 16.2278 23.3845 16.9645 23.3845ZM9.63099 36.4C8.82032 36.4 8.14582 36.1306 7.60749 35.592C7.06915 35.0533 6.79999 34.3783 6.79999 33.567V14.4165C6.79999 13.6055 7.06915 12.9333 7.60749 12.4C8.14582 11.8666 8.82032 11.6 9.63099 11.6H38.369C39.1797 11.6 39.8542 11.8693 40.3925 12.408C40.9308 12.9466 41.2 13.6216 41.2 14.433V33.5835C41.2 34.3945 40.9308 35.0666 40.3925 35.6C39.8542 36.1333 39.1797 36.4 38.369 36.4H9.63099ZM9.63099 34.8H38.369C38.677 34.8 38.9592 34.6718 39.2155 34.4155C39.4718 34.1591 39.6 33.877 39.6 33.569V14.431C39.6 14.123 39.4718 13.8408 39.2155 13.5845C38.9592 13.3281 38.677 13.2 38.369 13.2H9.63099C9.32299 13.2 9.04082 13.3281 8.78449 13.5845C8.52815 13.8408 8.39999 14.123 8.39999 14.431V33.569C8.39999 33.877 8.52815 34.1591 8.78449 34.4155C9.04082 34.6718 9.32299 34.8 9.63099 34.8Z" fill="white"/>
</g>
</svg>
