<svg width="48" height="48" viewBox="0 0 48 48" fill="none" xmlns="http://www.w3.org/2000/svg">
<mask id="mask0_46_325" style="mask-type:alpha" maskUnits="userSpaceOnUse" x="0" y="0" width="48" height="48">
<rect width="48" height="48" fill="#D9D9D9"/>
</mask>
<g mask="url(#mask0_46_325)">
<path d="M20.4 32.4771C23.7333 32.4771 26.5667 31.3066 28.9 28.9655C31.2333 26.6249 32.4 23.7826 32.4 20.4385C32.4 17.0946 31.2333 14.252 28.9 11.911C26.5667 9.57038 23.7333 8.40005 20.4 8.40005C17.0667 8.40005 14.2333 9.57038 11.9 11.911C9.56665 14.252 8.39999 17.0946 8.39999 20.4385C8.39999 23.7826 9.56665 26.6249 11.9 28.9655C14.2333 31.3066 17.0667 32.4771 20.4 32.4771ZM19.6 25.5926V13.269H21.2V25.5926H19.6ZM13.3075 25.5926V17.877H14.9075V25.5926H13.3075ZM25.8925 25.5926V20.2H27.4925V25.5926H25.8925ZM40.073 41.2001L29.446 30.573C28.227 31.6397 26.8453 32.4776 25.301 33.0865C23.7567 33.6955 22.1287 34.0001 20.417 34.0001C16.6157 34.0001 13.3958 32.6777 10.7575 30.0331C8.11915 27.3884 6.79999 24.1794 6.79999 20.406C6.79999 16.6327 8.12232 13.4217 10.767 10.7731C13.4117 8.12438 16.6207 6.80005 20.394 6.80005C24.1673 6.80005 27.3783 8.11922 30.027 10.7576C32.6757 13.3959 34 16.6157 34 20.4171C34 22.1287 33.6955 23.7567 33.0865 25.301C32.4775 26.8454 31.6397 28.2142 30.573 29.4076L41.2 40.0345L40.073 41.2001Z" fill="#373945"/>
</g>
</svg>
