<svg width="49" height="48" viewBox="0 0 49 48" fill="none" xmlns="http://www.w3.org/2000/svg">
<mask id="mask0_46_357" style="mask-type:alpha" maskUnits="userSpaceOnUse" x="0" y="0" width="49" height="48">
<rect x="0.22168" width="48" height="48" fill="#D9D9D9"/>
</mask>
<g mask="url(#mask0_46_357)">
<path d="M8.89868 33.4729L16.2827 13.4114H18.3987L25.8832 33.4729H23.7252L21.6927 27.6654H12.9832L10.9792 33.4729H8.89868ZM13.6217 25.9499H21.0832L17.4302 15.6539H17.3102L13.6217 25.9499ZM32.4102 33.9344C30.8639 33.9344 29.6479 33.5249 28.7622 32.7059C27.8762 31.8865 27.4332 30.796 27.4332 29.4344C27.4332 28.019 27.964 26.9145 29.0257 26.1209C30.087 25.3275 31.492 24.9309 33.2407 24.9309C33.8564 24.9309 34.5142 25.0039 35.2142 25.1499C35.9142 25.2959 36.5937 25.4984 37.2527 25.7574V24.7309C37.2527 23.4009 36.9307 22.3882 36.2867 21.6929C35.643 20.9975 34.702 20.6499 33.4637 20.6499C32.7897 20.6499 32.1719 20.7614 31.6102 20.9844C31.0485 21.2074 30.4537 21.5844 29.8257 22.1154L28.6527 20.9809C29.268 20.3629 29.9917 19.889 30.8237 19.5594C31.6557 19.23 32.564 19.0654 33.5487 19.0654C35.2973 19.0654 36.6442 19.539 37.5892 20.4864C38.5338 21.4337 39.0062 22.7549 39.0062 24.4499V33.4729H37.2527V31.4809H37.1027C36.4847 32.3575 35.8154 32.9857 35.0947 33.3654C34.3744 33.7447 33.4795 33.9344 32.4102 33.9344ZM32.4762 32.3614C33.9805 32.3614 35.1462 31.88 35.9732 30.9174C36.8005 29.9544 37.2142 28.721 37.2142 27.2174C36.7475 26.944 36.1904 26.7407 35.5427 26.6074C34.8954 26.474 34.217 26.4074 33.5077 26.4074C32.1427 26.4074 31.087 26.6542 30.3407 27.1479C29.5947 27.6415 29.2217 28.4049 29.2217 29.4379C29.2217 30.2895 29.5165 30.9897 30.1062 31.5384C30.6959 32.087 31.4859 32.3614 32.4762 32.3614Z" fill="white"/>
</g>
</svg>
