<svg width="48" height="48" viewBox="0 0 48 48" fill="none" xmlns="http://www.w3.org/2000/svg">
<mask id="mask0_401_1063" style="mask-type:alpha" maskUnits="userSpaceOnUse" x="0" y="0" width="48" height="48">
<rect width="48" height="48" transform="matrix(-1 0 0 1 48 0)" fill="#D9D9D9"/>
</mask>
<g mask="url(#mask0_401_1063)">
<path d="M24 30.7805L22.4195 29.2L26.4845 25.1345H16.8655V22.8655H26.4845L22.4195 18.8L24 17.2195L30.7805 24L24 30.7805ZM23.9965 43C26.6038 43 29.0605 42.5013 31.3665 41.504C33.6725 40.5067 35.689 39.1448 37.416 37.4185C39.143 35.6922 40.5055 33.6765 41.5035 31.3715C42.5012 29.0668 43 26.6108 43 24.0035C43 21.3755 42.5013 18.9053 41.504 16.593C40.5067 14.2807 39.1448 12.2693 37.4185 10.559C35.6922 8.84867 33.6765 7.4945 31.3715 6.4965C29.0668 5.49883 26.6108 5 24.0035 5C21.3755 5 18.9053 5.49867 16.593 6.496C14.2807 7.49333 12.2693 8.84683 10.559 10.5565C8.84866 12.2662 7.4945 14.2767 6.4965 16.588C5.49883 18.8993 5 21.3688 5 23.9965C5 26.6038 5.49867 29.0605 6.496 31.3665C7.49333 33.6725 8.84683 35.689 10.5565 37.416C12.2662 39.143 14.2767 40.5055 16.588 41.5035C18.8993 42.5012 21.3688 43 23.9965 43ZM24 40.7305C19.3437 40.7305 15.3912 39.1012 12.1425 35.8425C8.89383 32.5835 7.2695 28.636 7.2695 24C7.2695 19.3437 8.89383 15.3912 12.1425 12.1425C15.3912 8.89383 19.3437 7.2695 24 7.2695C28.636 7.2695 32.5835 8.89383 35.8425 12.1425C39.1012 15.3912 40.7305 19.3437 40.7305 24C40.7305 28.636 39.1012 32.5835 35.8425 35.8425C32.5835 39.1012 28.636 40.7305 24 40.7305Z" fill="#0071CE"/>
</g>
</svg>
