<svg width="49" height="48" viewBox="0 0 49 48" fill="none" xmlns="http://www.w3.org/2000/svg">
<mask id="mask0_122_533" style="mask-type:alpha" maskUnits="userSpaceOnUse" x="0" y="0" width="49" height="48">
<rect x="0.22168" width="48" height="48" fill="#D9D9D9"/>
</mask>
<g mask="url(#mask0_122_533)">
<path d="M22.0372 27.0155C23.4758 27.0155 24.7022 26.5085 25.7162 25.4945C26.7302 24.4805 27.2372 23.2541 27.2372 21.8155C27.2372 20.3768 26.7302 19.1505 25.7162 18.1365C24.7022 17.1225 23.4758 16.6155 22.0372 16.6155C20.5985 16.6155 19.3722 17.1225 18.3582 18.1365C17.3442 19.1505 16.8372 20.3768 16.8372 21.8155C16.8372 23.2541 17.3442 24.4805 18.3582 25.4945C19.3722 26.5085 20.5985 27.0155 22.0372 27.0155ZM31.3102 32.2155L26.2907 27.1075C25.6573 27.5511 24.989 27.9133 24.2857 28.194C23.5823 28.475 22.8392 28.6155 22.0562 28.6155C20.1588 28.6155 18.548 27.955 17.2237 26.634C15.8993 25.3133 15.2372 23.709 15.2372 21.821C15.2372 19.9326 15.8975 18.3263 17.2182 17.002C18.5388 15.6776 20.1433 15.0155 22.0317 15.0155C23.92 15.0155 25.5264 15.6785 26.8507 17.0045C28.175 18.3305 28.8372 19.9413 28.8372 21.837C28.8372 22.6193 28.7032 23.362 28.4352 24.065C28.1672 24.7676 27.8113 25.4356 27.3677 26.069L32.4372 31.05L31.3102 32.2155ZM12.2527 38.8C11.442 38.8 10.7675 38.5308 10.2292 37.9925C9.69085 37.4541 9.42168 36.7796 9.42168 35.969V28.8H11.0217V35.969C11.0217 36.277 11.1498 36.5591 11.4062 36.8155C11.6625 37.0718 11.9447 37.2 12.2527 37.2H19.4217V38.8H12.2527ZM29.0217 38.8V37.2H36.1907C36.4987 37.2 36.7808 37.0718 37.0372 36.8155C37.2935 36.5591 37.4217 36.277 37.4217 35.969V28.8H39.0217V35.969C39.0217 36.7796 38.7525 37.4541 38.2142 37.9925C37.6758 38.5308 37.0013 38.8 36.1907 38.8H29.0217ZM9.42168 19.2V12.031C9.42168 11.2203 9.69085 10.5458 10.2292 10.0075C10.7675 9.46912 11.442 9.19995 12.2527 9.19995H19.4217V10.8H12.2527C11.9447 10.8 11.6625 10.9281 11.4062 11.1845C11.1498 11.4408 11.0217 11.723 11.0217 12.031V19.2H9.42168ZM37.4217 19.2V12.031C37.4217 11.723 37.2935 11.4408 37.0372 11.1845C36.7808 10.9281 36.4987 10.8 36.1907 10.8H29.0217V9.19995H36.1907C37.0013 9.19995 37.6758 9.46912 38.2142 10.0075C38.7525 10.5458 39.0217 11.2203 39.0217 12.031V19.2H37.4217Z" fill="#373945"/>
</g>
</svg>
