<svg width="48" height="48" viewBox="0 0 48 48" fill="none" xmlns="http://www.w3.org/2000/svg">
<mask id="mask0_401_1060" style="mask-type:alpha" maskUnits="userSpaceOnUse" x="0" y="0" width="48" height="48">
<rect width="48" height="48" fill="#D9D9D9"/>
</mask>
<g mask="url(#mask0_401_1060)">
<path d="M25 30.7805L26.5805 29.2L22.5155 25.1345H32.1345V22.8655H22.5155L26.5805 18.8L25 17.2195L18.2195 24L25 30.7805ZM25.0035 43C22.3962 43 19.9395 42.5013 17.6335 41.504C15.3275 40.5067 13.311 39.1448 11.584 37.4185C9.857 35.6922 8.4945 33.6765 7.4965 31.3715C6.49883 29.0668 6 26.6108 6 24.0035C6 21.3755 6.49867 18.9053 7.496 16.593C8.49333 14.2807 9.85517 12.2693 11.5815 10.559C13.3078 8.84867 15.3235 7.4945 17.6285 6.4965C19.9332 5.49883 22.3892 5 24.9965 5C27.6245 5 30.0947 5.49867 32.407 6.496C34.7193 7.49333 36.7307 8.84683 38.441 10.5565C40.1513 12.2662 41.5055 14.2767 42.5035 16.588C43.5012 18.8993 44 21.3688 44 23.9965C44 26.6038 43.5013 29.0605 42.504 31.3665C41.5067 33.6725 40.1532 35.689 38.4435 37.416C36.7338 39.143 34.7233 40.5055 32.412 41.5035C30.1007 42.5012 27.6312 43 25.0035 43ZM25 40.7305C29.6563 40.7305 33.6088 39.1012 36.8575 35.8425C40.1062 32.5835 41.7305 28.636 41.7305 24C41.7305 19.3437 40.1062 15.3912 36.8575 12.1425C33.6088 8.89383 29.6563 7.2695 25 7.2695C20.364 7.2695 16.4165 8.89383 13.1575 12.1425C9.89883 15.3912 8.2695 19.3437 8.2695 24C8.2695 28.636 9.89883 32.5835 13.1575 35.8425C16.4165 39.1012 20.364 40.7305 25 40.7305Z" fill="#0071CE"/>
</g>
</svg>
