<svg width="49" height="48" viewBox="0 0 49 48" fill="none" xmlns="http://www.w3.org/2000/svg">
<mask id="mask0_46_341" style="mask-type:alpha" maskUnits="userSpaceOnUse" x="0" y="0" width="49" height="48">
<rect x="0.22168" width="48" height="48" fill="#373945"/>
</mask>
<g mask="url(#mask0_46_341)">
<path d="M24.6217 41.1999L32.7872 20.3999H34.7332L42.8987 41.1999H40.9872L38.7062 35.3499H28.8142L26.5332 41.1999H24.6217ZM8.71018 35.4309L7.59468 34.2654L16.8872 25.0344C15.7128 23.7677 14.5192 22.3485 13.3062 20.7769C12.0935 19.2049 11.232 17.8625 10.7217 16.7499H12.7832C13.2038 17.6372 13.8743 18.6994 14.7947 19.9364C15.7153 21.1737 16.768 22.4512 17.9527 23.7689C19.8603 21.7022 21.4308 19.8465 22.6642 18.2019C23.8975 16.5569 24.7705 14.8895 25.2832 13.1999H5.39068V11.5999H17.4217V8.33838H19.0217V11.5999H31.0527V13.1999H27.1602C26.5628 15.1922 25.5782 17.08 24.2062 18.8634C22.8345 20.6467 21.105 22.678 19.0177 24.9574L23.8372 29.7654L23.1677 31.4269L17.9527 26.2114L8.71018 35.4309ZM29.4372 33.7424H38.0832L33.8602 22.8689L29.4372 33.7424Z" fill="#373945"/>
</g>
</svg>
