<svg width="49" height="48" viewBox="0 0 49 48" fill="none" xmlns="http://www.w3.org/2000/svg">
<mask id="mask0_46_349" style="mask-type:alpha" maskUnits="userSpaceOnUse" x="0" y="0" width="49" height="48">
<rect x="0.22168" width="48" height="48" fill="#D9D9D9"/>
</mask>
<g mask="url(#mask0_46_349)">
<path d="M22.1217 29.6656L31.7372 20.0001L30.6102 18.8731L22.1217 27.4116L17.7947 23.0846L16.6677 24.2116L22.1217 29.6656ZM24.2217 41.1231C20.337 39.9974 17.0992 37.6744 14.5082 34.1541C11.9172 30.6338 10.6217 26.6658 10.6217 22.2501V12.1846L24.2217 6.9541L37.8217 12.1846V22.2501C37.8217 26.6658 36.5262 30.6338 33.9352 34.1541C31.3442 37.6744 28.1063 39.9974 24.2217 41.1231ZM24.2217 39.4501C27.6883 38.3751 30.555 36.2251 32.8217 33.0001C35.0883 29.7751 36.2217 26.1918 36.2217 22.2501V13.2501L24.2217 8.6886L12.2217 13.2501V22.2501C12.2217 26.1918 13.355 29.7751 15.6217 33.0001C17.8883 36.2251 20.755 38.3751 24.2217 39.4501Z" fill="white"/>
</g>
</svg>
