<svg width="72" height="72" viewBox="0 0 72 72" fill="none"
    xmlns="http://www.w3.org/2000/svg">
    <mask id="mask0_185_10" style="mask-type:alpha" maskUnits="userSpaceOnUse" x="0" y="0" width="72" height="72">
        <rect width="72" height="72" fill="#D9D9D9"/>
    </mask>
    <g mask="url(#mask0_185_10)">
        <path d="M43.5 38.25H57V33.75H43.5V38.25ZM43.5 29.25H57V24.75H43.5V29.25ZM15 48H39V46.575C39 44.475 37.9375 42.7625 35.8125 41.4375C33.6875 40.1125 30.75 39.45 27 39.45C23.25 39.45 20.3125 40.1125 18.1875 41.4375C16.0625 42.7625 15 44.475 15 46.575V48ZM26.994 34.95C28.498 34.95 29.7875 34.4145 30.8625 33.3435C31.9375 32.2725 32.475 30.985 32.475 29.481C32.475 27.977 31.9395 26.6875 30.8685 25.6125C29.7975 24.5375 28.51 24 27.006 24C25.502 24 24.2125 24.5355 23.1375 25.6065C22.0625 26.6775 21.525 27.965 21.525 29.469C21.525 30.973 22.0605 32.2625 23.1315 33.3375C24.2025 34.4125 25.49 34.95 26.994 34.95ZM10.5 60C9.3 60 8.25 59.55 7.35 58.65C6.45 57.75 6 56.7 6 55.5V16.5C6 15.3 6.45 14.25 7.35 13.35C8.25 12.45 9.3 12 10.5 12H61.5C62.7 12 63.75 12.45 64.65 13.35C65.55 14.25 66 15.3 66 16.5V55.5C66 56.7 65.55 57.75 64.65 58.65C63.75 59.55 62.7 60 61.5 60H10.5ZM10.5 55.5H61.5V16.5H10.5V55.5Z" fill="#0C86EE"/>
    </g>
</svg>
