<svg width="72" height="72" viewBox="0 0 72 72" fill="none"
    xmlns="http://www.w3.org/2000/svg">
    <mask id="mask0_186_147" style="mask-type:alpha" maskUnits="userSpaceOnUse" x="0" y="0" width="72" height="72">
        <rect width="72" height="72" fill="#0C86EE"/>
    </mask>
    <g mask="url(#mask0_186_147)">
        <path d="M30.0045 49.5C35.4015 49.5 40.0125 47.5968 43.8375 43.7903C47.6625 39.9843 49.575 35.3625 49.575 29.925C49.575 24.529 47.6625 19.9425 43.8375 16.1655C40.0125 12.3885 35.4015 10.5 30.0045 10.5C24.6075 10.5 20.02 12.3885 16.242 16.1655C12.464 19.9425 10.575 24.529 10.575 29.925C10.575 35.3625 12.464 39.9843 16.242 43.7903C20.02 47.5968 24.6075 49.5 30.0045 49.5ZM27.825 38.4V18.375H32.325V38.4H27.825ZM16.95 38.4V24.6H21.45V38.4H16.95ZM38.7 38.4V27.675H43.2V38.4H38.7ZM62.85 66L45.375 48.45C43.275 50.2 40.919 51.5625 38.307 52.5375C35.6945 53.5125 32.9255 54 30 54C23.35 54 17.7 51.6625 13.05 46.9875C8.39995 42.3125 6.07495 36.6325 6.07495 29.9475C6.07495 23.262 8.39495 17.5995 13.035 12.96C17.6745 8.32 23.3369 6 30.0224 6C36.7074 6 42.3875 8.325 47.0625 12.975C51.7375 17.625 54.075 23.275 54.075 29.925C54.075 32.8505 53.5875 35.6195 52.6125 38.232C51.6375 40.844 50.275 43.2 48.525 45.3L66 62.775L62.85 66Z" fill="#0C86EE"/>
    </g>
</svg>
