<svg width="72" height="72" viewBox="0 0 72 72" fill="none"
    xmlns="http://www.w3.org/2000/svg">
    <mask id="mask0_186_165" style="mask-type:alpha" maskUnits="userSpaceOnUse" x="0" y="0" width="72" height="72">
        <rect width="72" height="72" fill="#D9D9D9"/>
    </mask>
    <g mask="url(#mask0_186_165)">
        <path d="M32.7 45.975L49.8 28.875L46.65 25.8L32.925 39.525L25.35 31.95L22.05 35.25L32.7 45.975ZM36 65.925C29 64.175 23.25 60.1125 18.75 53.7375C14.25 47.3625 12 40.375 12 32.775V14.925L36 5.925L60 14.925V32.775C60 40.375 57.75 47.3625 53.25 53.7375C48.75 60.1125 43 64.175 36 65.925ZM36 61.275C41.75 59.375 46.4375 55.7875 50.0625 50.5125C53.6875 45.2375 55.5 39.325 55.5 32.775V18.075L36 10.725L16.5 18.075V32.775C16.5 39.325 18.3125 45.2375 21.9375 50.5125C25.5625 55.7875 30.25 59.375 36 61.275Z" fill="#0C86EE"/>
    </g>
</svg>
