<svg width="62" height="62" viewBox="0 0 62 62" fill="none"
    xmlns="http://www.w3.org/2000/svg">
    <mask id="mask0_186_160" style="mask-type:alpha" maskUnits="userSpaceOnUse" x="0" y="0" width="62" height="62">
        <rect width="62" height="62" fill="#0C86EE"/>
    </mask>
    <g mask="url(#mask0_186_160)">
        <path d="M30.677 56.8333L42.6249 25.8333H47.727L59.6749 56.8333H55.477L52.5708 49.2771H37.7166L34.8103 56.8333H30.677ZM10.4624 49.0188L7.74992 46.3063L20.7312 33.325C18.5353 31.0431 16.6947 28.7288 15.2093 26.3823C13.7239 24.0358 12.5937 21.7 11.8187 19.375H16.0166C16.7055 21.2264 17.6419 23.0563 18.826 24.8646C20.01 26.6729 21.5708 28.5674 23.5083 30.5479C25.4888 28.4813 27.3187 25.9517 28.9978 22.9594C30.677 19.967 31.8826 17.05 32.6145 14.2083H2.58325V10.3333H21.3124V5.16667H25.1874V10.3333H43.9166V14.2083H36.6187C35.8867 17.5667 34.5628 21.0004 32.6468 24.5094C30.7308 28.0184 28.5888 30.9785 26.2208 33.3896L32.8083 40.1063L31.2583 44.175L23.4437 36.1021L10.4624 49.0188ZM39.0728 45.725H51.2145L45.1437 29.7083L39.0728 45.725Z" fill="#0C86EE"/>
    </g>
</svg>
