<svg width="62" height="62" viewBox="0 0 62 62" fill="none"
    xmlns="http://www.w3.org/2000/svg">
    <mask id="mask0_217_12" style="mask-type:alpha" maskUnits="userSpaceOnUse" x="0" y="0" width="62" height="62">
        <rect width="62" height="62" fill="#D9D9D9"/>
    </mask>
    <g mask="url(#mask0_217_12)">
        <path d="M11.625 54.25C10.5917 54.25 9.6875 53.8625 8.9125 53.0875C8.1375 52.3125 7.75 51.4083 7.75 50.375V11.625C7.75 10.5917 8.1375 9.6875 8.9125 8.9125C9.6875 8.1375 10.5917 7.75 11.625 7.75H25.3813V11.625H11.625V50.375H50.375V32.8729L54.25 36.7479V50.375C54.25 51.4083 53.8625 52.3125 53.0875 53.0875C52.3125 53.8625 51.4083 54.25 50.375 54.25H11.625ZM15.3062 44.1104L22.8625 34.3583L28.8687 42.4958L37.2646 31.5167L46.7583 44.1104H15.3062ZM56.5104 33.4542L47.9208 24.8646C47.0167 25.4674 46.1233 25.9087 45.2406 26.1885C44.358 26.4684 43.3139 26.6083 42.1083 26.6083C39.0944 26.6083 36.5542 25.575 34.4875 23.5083C32.4208 21.4417 31.3875 18.9014 31.3875 15.8875C31.3875 12.8736 32.4208 10.3333 34.4875 8.26667C36.5542 6.2 39.0944 5.16667 42.1083 5.16667C45.1222 5.16667 47.6625 6.2 49.7292 8.26667C51.7958 10.3333 52.8292 12.8736 52.8292 15.8875C52.8292 17.0931 52.6569 18.234 52.3125 19.3104C51.9681 20.3868 51.4944 21.3771 50.8917 22.2812L59.2875 30.6771L56.5104 33.4542ZM42.1083 22.7333C44.0889 22.7333 45.725 22.0875 47.0167 20.7958C48.3083 19.5042 48.9542 17.8681 48.9542 15.8875C48.9542 13.9069 48.3083 12.2708 47.0167 10.9792C45.725 9.6875 44.0889 9.04167 42.1083 9.04167C40.1278 9.04167 38.4917 9.6875 37.2 10.9792C35.9083 12.2708 35.2625 13.9069 35.2625 15.8875C35.2625 17.8681 35.9083 19.5042 37.2 20.7958C38.4917 22.0875 40.1278 22.7333 42.1083 22.7333Z" fill="#0C86EE"/>
    </g>
</svg>
