<svg width="72" height="72" viewBox="0 0 72 72" fill="none"
    xmlns="http://www.w3.org/2000/svg">
    <mask id="mask0_186_155" style="mask-type:alpha" maskUnits="userSpaceOnUse" x="0" y="0" width="72" height="72">
        <rect width="72" height="72" fill="#0C86EE"/>
    </mask>
    <g mask="url(#mask0_186_155)">
        <path d="M11.25 52.5L23.325 19.5H27.3L39.45 52.5H35.55L32.325 43.425H18.3L15.075 52.5H11.25ZM19.5 40.125H31.125L25.35 23.85H25.2L19.5 40.125ZM49.95 53.25C47.4 53.25 45.3125 52.6 43.6875 51.3C42.0625 50 41.25 48.25 41.25 46.05C41.25 43.7 42.1375 41.8125 43.9125 40.3875C45.6875 38.9625 48 38.25 50.85 38.25C52.15 38.25 53.3625 38.3625 54.4875 38.5875C55.6125 38.8125 56.575 39.125 57.375 39.525V38.175C57.375 36.275 56.8625 34.8125 55.8375 33.7875C54.8125 32.7625 53.325 32.25 51.375 32.25C50.225 32.25 49.15 32.45 48.15 32.85C47.15 33.25 46.225 33.875 45.375 34.725L43.05 32.625C44.25 31.475 45.5 30.625 46.8 30.075C48.1 29.525 49.625 29.25 51.375 29.25C54.475 29.25 56.8125 30.025 58.3875 31.575C59.9625 33.125 60.75 35.45 60.75 38.55V52.5H57.45V49.35H57.15C56.35 50.65 55.2625 51.625 53.8875 52.275C52.5125 52.925 51.2 53.25 49.95 53.25ZM49.95 50.4C51.75 50.4 53.45 49.65 55.05 48.15C56.65 46.65 57.45 44.75 57.45 42.45C56.65 42.05 55.7 41.725 54.6 41.475C53.5 41.225 52.425 41.1 51.375 41.1C49.275 41.1 47.6375 41.5375 46.4625 42.4125C45.2875 43.2875 44.7 44.5 44.7 46.05C44.7 47.35 45.2125 48.4 46.2375 49.2C47.2625 50 48.5 50.4 49.95 50.4Z" fill="#0C86EE"/>
    </g>
</svg>
