<svg width="72" height="72" viewBox="0 0 72 72" fill="none"
    xmlns="http://www.w3.org/2000/svg">
    <mask id="mask0_186_137" style="mask-type:alpha" maskUnits="userSpaceOnUse" x="0" y="0" width="72" height="72">
        <rect width="72" height="72" fill="#D9D9D9"/>
    </mask>
    <g mask="url(#mask0_186_137)">
        <path d="M33.738 41.25C35.846 41.25 37.625 40.529 39.075 39.087C40.525 37.6445 41.25 35.8695 41.25 33.762C41.25 31.654 40.529 29.875 39.087 28.425C37.6445 26.975 35.8695 26.25 33.762 26.25C31.654 26.25 29.875 26.971 28.425 28.413C26.975 29.8555 26.25 31.6305 26.25 33.738C26.25 35.846 26.971 37.625 28.413 39.075C29.8555 40.525 31.6305 41.25 33.738 41.25ZM48.225 51.45L40.425 43.65C39.325 44.35 38.2125 44.875 37.0875 45.225C35.9625 45.575 34.8618 45.75 33.7853 45.75C30.4618 45.75 27.625 44.575 25.275 42.225C22.925 39.875 21.75 37.05 21.75 33.75C21.75 30.45 22.925 27.625 25.275 25.275C27.625 22.925 30.45 21.75 33.75 21.75C37.05 21.75 39.875 22.925 42.225 25.275C44.575 27.625 45.75 30.4618 45.75 33.7853C45.75 34.8618 45.5625 35.9625 45.1875 37.0875C44.8125 38.2125 44.275 39.325 43.575 40.425L51.45 48.3L48.225 51.45ZM13.5 63C12.3 63 11.25 62.55 10.35 61.65C9.45 60.75 9 59.7 9 58.5V45.6H13.5V58.5H26.4V63H13.5ZM45.6 63V58.5H58.5V45.6H63V58.5C63 59.7 62.55 60.75 61.65 61.65C60.75 62.55 59.7 63 58.5 63H45.6ZM9 26.4V13.5C9 12.3 9.45 11.25 10.35 10.35C11.25 9.45 12.3 9 13.5 9H26.4V13.5H13.5V26.4H9ZM58.5 26.4V13.5H45.6V9H58.5C59.7 9 60.75 9.45 61.65 10.35C62.55 11.25 63 12.3 63 13.5V26.4H58.5Z" fill="#0C86EE"/>
    </g>
</svg>
