<svg width="25" height="25" viewBox="0 0 25 25" fill="none"
    xmlns="http://www.w3.org/2000/svg">
    <mask id="mask0_476_5045" style="mask-type:alpha" maskUnits="userSpaceOnUse" x="0" y="0" width="25" height="25">
        <rect x="0.666016" y="0.363281" width="24" height="24" fill="#D9D9D9"/>
    </mask>
    <g mask="url(#mask0_476_5045)">
        <path d="M2.66636 22.4133C2.41636 22.4133 2.19136 22.3466 1.99136 22.2133C1.79136 22.0799 1.63303 21.9216 1.51636 21.7383C1.39969 21.5549 1.33719 21.3466 1.32886 21.1133C1.32053 20.8799 1.38303 20.6466 1.51636 20.4133L11.5164 3.18827C11.6497 2.95494 11.8164 2.78827 12.0164 2.68827C12.2164 2.58827 12.433 2.53827 12.6664 2.53827C12.8997 2.53827 13.1164 2.58827 13.3164 2.68827C13.5164 2.78827 13.683 2.95494 13.8164 3.18827L23.8164 20.4133C23.9497 20.6466 24.0122 20.8799 24.0039 21.1133C23.9955 21.3466 23.933 21.5549 23.8164 21.7383C23.6997 21.9216 23.5414 22.0799 23.3414 22.2133C23.1414 22.3466 22.9164 22.4133 22.6664 22.4133H2.66636ZM12.6914 19.0383C13.058 19.0383 13.3705 18.9091 13.6289 18.6508C13.8872 18.3924 14.0164 18.0799 14.0164 17.7133C14.0164 17.3466 13.8872 17.0341 13.6289 16.7758C13.3705 16.5174 13.058 16.3883 12.6914 16.3883C12.3247 16.3883 12.0122 16.5174 11.7539 16.7758C11.4955 17.0341 11.3664 17.3466 11.3664 17.7133C11.3664 18.0799 11.4955 18.3924 11.7539 18.6508C12.0122 18.9091 12.3247 19.0383 12.6914 19.0383ZM12.6914 15.4633C13.058 15.4633 13.3705 15.3341 13.6289 15.0758C13.8872 14.8174 14.0164 14.5049 14.0164 14.1383V11.6883C14.0164 11.3216 13.8872 11.0091 13.6289 10.7508C13.3705 10.4924 13.058 10.3633 12.6914 10.3633C12.3247 10.3633 12.0122 10.4924 11.7539 10.7508C11.4955 11.0091 11.3664 11.3216 11.3664 11.6883V14.1383C11.3664 14.5049 11.4955 14.8174 11.7539 15.0758C12.0122 15.3341 12.3247 15.4633 12.6914 15.4633Z" fill="#1C1B1F"/>
    </g>
</svg>
