<svg width="20" height="20" viewBox="0 0 20 20" fill="none" xmlns="http://www.w3.org/2000/svg">
<path fill-rule="evenodd" clip-rule="evenodd" d="M10 3.45365L4.16667 6.73531V6.85615C4.16667 10.8061 6.305 14.4636 9.74833 16.4011L10 16.5428L10.2517 16.4011C13.695 14.4636 15.8333 10.8061 15.8333 6.85615V6.73531L10 3.45365ZM10 18.207C9.7175 18.207 9.435 18.137 9.18417 17.9953L8.93167 17.8528C4.96417 15.622 2.5 11.4078 2.5 6.85615V6.73531C2.5 6.13615 2.825 5.57948 3.34833 5.28365L9.18333 2.00198C9.6875 1.71865 10.3133 1.71781 10.8158 2.00115L16.65 5.28281C17.175 5.57948 17.5 6.13615 17.5 6.73531V6.85615C17.5 11.4078 15.0358 15.622 11.0683 17.8528L10.8167 17.9945C10.565 18.1361 10.2825 18.207 10 18.207Z" fill="white"/>
</svg>
