<svg width="21" height="19" viewBox="0 0 21 19" fill="none" xmlns="http://www.w3.org/2000/svg">
<path d="M4.69531 16.2493L2.39531 18.5493C2.07865 18.8659 1.71615 18.9368 1.30781 18.7618C0.899479 18.5868 0.695312 18.2743 0.695312 17.8243V2.24927C0.695312 1.69927 0.891146 1.22843 1.28281 0.836768C1.67448 0.445101 2.14531 0.249268 2.69531 0.249268H18.6953C19.2453 0.249268 19.7161 0.445101 20.1078 0.836768C20.4995 1.22843 20.6953 1.69927 20.6953 2.24927V14.2493C20.6953 14.7993 20.4995 15.2701 20.1078 15.6618C19.7161 16.0534 19.2453 16.2493 18.6953 16.2493H4.69531ZM5.69531 12.2493H11.6953C11.9786 12.2493 12.2161 12.1534 12.4078 11.9618C12.5995 11.7701 12.6953 11.5326 12.6953 11.2493C12.6953 10.9659 12.5995 10.7284 12.4078 10.5368C12.2161 10.3451 11.9786 10.2493 11.6953 10.2493H5.69531C5.41198 10.2493 5.17448 10.3451 4.98281 10.5368C4.79115 10.7284 4.69531 10.9659 4.69531 11.2493C4.69531 11.5326 4.79115 11.7701 4.98281 11.9618C5.17448 12.1534 5.41198 12.2493 5.69531 12.2493ZM5.69531 9.24927H15.6953C15.9786 9.24927 16.2161 9.15343 16.4078 8.96177C16.5995 8.7701 16.6953 8.5326 16.6953 8.24927C16.6953 7.96593 16.5995 7.72843 16.4078 7.53677C16.2161 7.3451 15.9786 7.24927 15.6953 7.24927H5.69531C5.41198 7.24927 5.17448 7.3451 4.98281 7.53677C4.79115 7.72843 4.69531 7.96593 4.69531 8.24927C4.69531 8.5326 4.79115 8.7701 4.98281 8.96177C5.17448 9.15343 5.41198 9.24927 5.69531 9.24927ZM5.69531 6.24927H15.6953C15.9786 6.24927 16.2161 6.15343 16.4078 5.96177C16.5995 5.7701 16.6953 5.5326 16.6953 5.24927C16.6953 4.96593 16.5995 4.72843 16.4078 4.53677C16.2161 4.3451 15.9786 4.24927 15.6953 4.24927H5.69531C5.41198 4.24927 5.17448 4.3451 4.98281 4.53677C4.79115 4.72843 4.69531 4.96593 4.69531 5.24927C4.69531 5.5326 4.79115 5.7701 4.98281 5.96177C5.17448 6.15343 5.41198 6.24927 5.69531 6.24927Z" fill="white"/>
</svg>
