<svg width="20" height="20" viewBox="0 0 20 20" fill="none" xmlns="http://www.w3.org/2000/svg">
<path fill-rule="evenodd" clip-rule="evenodd" d="M10.0009 13.3763C10.1334 13.3763 10.2659 13.408 10.3868 13.4705L13.5276 15.1121L12.9301 11.648C12.8826 11.3763 12.9734 11.0996 13.1718 10.9071L15.7018 8.46047L12.1993 7.95047C11.9284 7.9113 11.6943 7.74214 11.5726 7.49714L10.0009 4.33547L8.42926 7.49714C8.30759 7.74214 8.07342 7.9113 7.80259 7.95047L4.30009 8.46047L6.83009 10.9071C7.02842 11.0996 7.11926 11.3763 7.07176 11.648L6.47426 15.1121L9.61509 13.4705C9.73592 13.408 9.86842 13.3763 10.0009 13.3763ZM14.6359 17.4638C14.5034 17.4638 14.3709 17.433 14.2501 17.3696L10.0009 15.1496L5.75176 17.3696C5.47009 17.5163 5.13009 17.4905 4.87592 17.3038C4.61926 17.1171 4.49176 16.8013 4.54509 16.4888L5.35509 11.7988L1.92176 8.47797C1.69259 8.25714 1.61092 7.92547 1.70842 7.62297C1.80509 7.32047 2.06676 7.10047 2.38092 7.05464L7.13176 6.36464L9.25426 2.09297C9.53592 1.5263 10.4659 1.5263 10.7476 2.09297L12.8701 6.36464L17.6209 7.05464C17.9351 7.10047 18.1968 7.32047 18.2934 7.62297C18.3909 7.92547 18.3093 8.25714 18.0801 8.47797L14.6468 11.7988L15.4568 16.4888C15.5101 16.8013 15.3826 17.1171 15.1259 17.3038C14.9818 17.4105 14.8093 17.4638 14.6359 17.4638Z" fill="white"/>
</svg>
