<svg width="69" height="67" viewBox="0 0 69 67" fill="none" xmlns="http://www.w3.org/2000/svg">
<path d="M37.1932 62.0606H8.99999C4.58172 62.0606 1 58.4789 1 54.0606V9.00001C1 4.58173 4.58172 1 9 1H35.603C37.7247 1 39.7595 1.84285 41.2598 3.34315L47.1606 9.24397C48.6609 10.7443 49.5038 12.7791 49.5038 14.9008V29.5606" stroke="#0070C0" stroke-width="2" stroke-linecap="round"/>
<path d="M49.2574 11.8337H41.9165C40.2596 11.8337 38.9165 10.4905 38.9165 8.83366V1.54199" stroke="#0070C0" stroke-width="2" stroke-linecap="round"/>
<ellipse cx="53.6892" cy="35.4699" rx="13.7879" ry="4.43182" stroke="#0070C0" stroke-width="2"/>
<path d="M39.9016 35.7105V40.5199C39.9016 41.7652 40.365 42.9853 41.418 43.65C42.3779 44.2561 43.7257 44.9127 45.4168 45.346C48.8071 46.2147 57.4958 47.4751 65.0523 44.0072C66.6126 43.2911 67.4774 41.6549 67.4774 39.9381V35.4696" stroke="#0070C0" stroke-width="2"/>
<path d="M44.3335 38.6709V44.8262" stroke="#0070C0" stroke-width="2"/>
<path d="M50.7349 39.6554V46.3031" stroke="#0070C0" stroke-width="2"/>
<path d="M57.1362 39.6554V46.3031" stroke="#0070C0" stroke-width="2"/>
<path d="M64.0303 38.178V44.3333" stroke="#0070C0" stroke-width="2"/>
<path d="M40.9831 53.4433C40.2867 53.9731 39.9016 54.5555 39.9016 55.1668C39.9016 57.6144 46.0747 59.5986 53.6895 59.5986C61.3043 59.5986 67.4774 57.6144 67.4774 55.1668C67.4774 54.5843 67.1278 54.0282 66.4925 53.5187" stroke="#0070C0" stroke-width="2"/>
<path d="M39.9016 55.4078V60.2172C39.9016 61.4625 40.365 62.6826 41.418 63.3473C42.3779 63.9534 43.7257 64.61 45.4168 65.0433C48.8071 65.912 57.4958 67.1724 65.0523 63.7045C66.6126 62.9884 67.4774 61.3522 67.4774 59.6354V55.1669" stroke="#0070C0" stroke-width="2"/>
<path d="M44.3337 58.3671V64.5224" stroke="#0070C0" stroke-width="2"/>
<path d="M50.7351 59.3523V66.0001" stroke="#0070C0" stroke-width="2"/>
<path d="M57.1365 59.3523V66.0001" stroke="#0070C0" stroke-width="2"/>
<path d="M64.0305 57.8749V64.0302" stroke="#0070C0" stroke-width="2"/>
<path d="M40.9831 43.5946C40.2867 44.1244 39.9016 44.7068 39.9016 45.3181C39.9016 47.7657 46.0747 49.7499 53.6895 49.7499C61.3043 49.7499 67.4774 47.7657 67.4774 45.3181C67.4774 44.7357 67.1278 44.1795 66.4925 43.6701" stroke="#0070C0" stroke-width="2"/>
<path d="M39.9016 45.5591V50.3686C39.9016 51.6138 40.365 52.8339 41.418 53.4987C42.3779 54.1047 43.7257 54.7613 45.4168 55.1946C48.8071 56.0634 57.4958 57.3237 65.0523 53.8558C66.6126 53.1397 67.4774 51.5035 67.4774 49.7867V45.3183" stroke="#0070C0" stroke-width="2"/>
<path d="M44.3337 48.5185V54.6738" stroke="#0070C0" stroke-width="2"/>
<path d="M50.7351 49.5037V56.1514" stroke="#0070C0" stroke-width="2"/>
<path d="M57.1365 49.5037V56.1514" stroke="#0070C0" stroke-width="2"/>
<path d="M64.0305 48.0262V54.1815" stroke="#0070C0" stroke-width="2"/>
<path d="M14.4438 31.8106V33.9006" stroke="#0070C0" stroke-width="2" stroke-linecap="round"/>
<path d="M32.9551 31.8106V33.9006" stroke="#0070C0" stroke-width="2" stroke-linecap="round"/>
<path d="M17.8774 24.3464L21.311 28.6757L26.6853 22.8536" stroke="#0070C0" stroke-width="2" stroke-linecap="round"/>
<path d="M20.415 23.0032L25.9386 28.676L29.3722 24.496" stroke="#0070C0" stroke-width="2" stroke-linecap="round"/>
<path d="M22.2065 27.7803L23.5501 29.4224L25.1923 28.0789" stroke="#0070C0" stroke-width="2" stroke-linecap="round"/>
<path d="M22.8039 28.5264L21.9082 34.05" stroke="#0070C0" stroke-width="2" stroke-linecap="round"/>
<path d="M24.5958 28.5264L25.79 34.05" stroke="#0070C0" stroke-width="2" stroke-linecap="round"/>
<path d="M10.1147 34.1996V30.6168C10.1147 29.6713 10.5626 27.5713 12.354 26.7353C14.1455 25.8993 16.8824 24.6951 18.0269 24.1975C18.7733 23.8989 20.4155 23.033 21.0126 21.9582" stroke="#0070C0" stroke-width="2" stroke-linecap="round"/>
<path d="M36.8374 34.1996V30.6168C36.8374 29.6713 36.3895 27.5713 34.5981 26.7353C32.8067 25.8993 30.0698 24.6951 28.9252 24.1975C28.1788 23.8989 26.5367 23.033 25.9395 21.9582" stroke="#0070C0" stroke-width="2" stroke-linecap="round"/>
<path d="M20.2661 10.4632C20.2661 10.0153 20.3855 9.11958 20.8632 9.11958C21.341 9.11958 23.3513 9.11958 24.2968 9.11958C25.4413 9.16934 27.7901 8.73144 28.029 6.58172V4.93958L21.0125 5.08886C19.9178 5.33767 17.7282 6.34286 17.7282 8.37315C17.7282 10.4034 17.7282 11.8067 17.7282 12.2546V13.001H16.8325V15.091C16.8823 15.6384 17.2804 16.5839 18.4747 16.5839C18.9723 18.4748 20.5647 22.1075 23.4011 22.1075C24.8442 22.1075 27.6707 21.0923 28.6261 17.0317C29.1237 17.0317 30.119 16.763 30.119 15.6882C30.119 14.6133 30.119 13.4489 30.119 13.001H29.3725V8.67172C29.4223 7.82577 29.1934 6.13386 27.8797 6.13386" stroke="#0070C0" stroke-width="2" stroke-linecap="round"/>
<path d="M7.15527 41.3788H35.2235" stroke="#0070C0" stroke-width="2" stroke-linecap="round"/>
<path d="M7.15527 46.303H35.2235" stroke="#0070C0" stroke-width="2" stroke-linecap="round"/>
<path d="M7.15527 51.2275H35.2235" stroke="#0070C0" stroke-width="2" stroke-linecap="round"/>
<path d="M7.15527 56.1514H25.375" stroke="#0070C0" stroke-width="2" stroke-linecap="round"/>
</svg>
