<svg width="20" height="20" viewBox="0 0 20 20" fill="none" xmlns="http://www.w3.org/2000/svg">
<path fill-rule="evenodd" clip-rule="evenodd" d="M15.825 16.6656H13.3333V10.8322C13.3333 10.3714 12.96 9.99891 12.5 9.99891H7.5C7.03917 9.99891 6.66667 10.3714 6.66667 10.8322V16.6656H4.16667L4.17167 9.65141L9.99833 3.69224L15.8333 9.68557L15.825 16.6656ZM8.33333 16.6656H11.6667V11.6656H8.33333V16.6656ZM17.02 8.48641L10.5958 1.91641C10.2817 1.59557 9.71833 1.59557 9.40417 1.91641L2.97917 8.48724C2.675 8.79974 2.5 9.23641 2.5 9.68557V16.6656C2.5 17.5847 3.20583 18.3322 4.07333 18.3322H7.5H12.5H15.9258C16.7933 18.3322 17.5 17.5847 17.5 16.6656V9.68557C17.5 9.23641 17.325 8.79974 17.02 8.48641Z" fill="white"/>
</svg>
