<svg width="20" height="20" viewBox="0 0 20 20" fill="none" xmlns="http://www.w3.org/2000/svg">
<path fill-rule="evenodd" clip-rule="evenodd" d="M5.83203 15.8333C5.37286 15.8333 4.9987 15.4592 4.9987 15C4.9987 14.5408 5.37286 14.1667 5.83203 14.1667H14.9987V15.8333H5.83203ZM5.83203 4.16667H14.9987V12.5H5.83203C5.53786 12.5 5.26036 12.56 4.9987 12.6533V5C4.9987 4.54083 5.37286 4.16667 5.83203 4.16667ZM15.832 2.5H5.83203C4.4537 2.5 3.33203 3.62167 3.33203 5V15C3.33203 16.3783 4.4537 17.5 5.83203 17.5H14.9987H15.832C16.292 17.5 16.6654 17.1267 16.6654 16.6667V15.8333V14.1667V3.33333C16.6654 2.87333 16.292 2.5 15.832 2.5Z" fill="white"/>
</svg>
