<svg width="40" height="40" viewBox="0 0 40 40" fill="none" xmlns="http://www.w3.org/2000/svg">
<mask id="mask0_37_196" style="mask-type:alpha" maskUnits="userSpaceOnUse" x="0" y="0" width="41" height="40">
<rect x="0.000244141" width="40" height="40" fill="#D9D9D9"/>
</mask>
<g mask="url(#mask0_37_196)">
<path d="M6.77408 34.1667C6.05769 34.1667 5.44408 33.9113 4.93324 33.4004C4.42241 32.8896 4.16699 32.276 4.16699 31.5596V13.4404C4.16699 12.724 4.42241 12.1104 4.93324 11.5996C5.44408 11.0888 6.05769 10.8333 6.77408 10.8333H14.167V7.60708C14.167 6.89069 14.4224 6.27708 14.9332 5.76625C15.4441 5.25542 16.0577 5 16.7741 5H23.2266C23.943 5 24.5566 5.25542 25.0674 5.76625C25.5782 6.27708 25.8337 6.89069 25.8337 7.60708V10.8333H33.2266C33.943 10.8333 34.5566 11.0888 35.0674 11.5996C35.5782 12.1104 35.8337 12.724 35.8337 13.4404V31.5596C35.8337 32.276 35.5782 32.8896 35.0674 33.4004C34.5566 33.9113 33.943 34.1667 33.2266 34.1667H6.77408ZM16.2612 10.8333H23.7395V7.60708C23.7395 7.47875 23.6862 7.36111 23.5795 7.25417C23.4725 7.1475 23.3549 7.09417 23.2266 7.09417H16.7741C16.6457 7.09417 16.5281 7.1475 16.4212 7.25417C16.3145 7.36111 16.2612 7.47875 16.2612 7.60708V10.8333ZM33.7395 24.3633H23.5749V26.8737H16.4599V24.3633H6.26116V31.5596C6.26116 31.6879 6.31449 31.8056 6.42116 31.9125C6.5281 32.0192 6.64574 32.0725 6.77408 32.0725H33.2266C33.3549 32.0725 33.4725 32.0192 33.5795 31.9125C33.6862 31.8056 33.7395 31.6879 33.7395 31.5596V24.3633ZM18.5537 24.78H21.4812V21.8525H18.5537V24.78ZM6.26116 22.2692H16.4599V19.7587H23.5749V22.2692H33.7395V13.4404C33.7395 13.3121 33.6862 13.1944 33.5795 13.0875C33.4725 12.9808 33.3549 12.9275 33.2266 12.9275H6.77408C6.64574 12.9275 6.5281 12.9808 6.42116 13.0875C6.31449 13.1944 6.26116 13.3121 6.26116 13.4404V22.2692Z" fill="#419E6A"/>
</g>
</svg>
