<svg width="20" height="20" viewBox="0 0 20 20" fill="none" xmlns="http://www.w3.org/2000/svg">
<path fill-rule="evenodd" clip-rule="evenodd" d="M14.7999 12.9502L9.99987 15.706L5.19987 12.9502L6.61153 12.3494L9.58487 14.056C9.7132 14.1302 9.85653 14.1669 9.99987 14.1669C10.1432 14.1669 10.2857 14.1302 10.4149 14.056L13.3882 12.3485L14.7999 12.9502ZM9.58487 10.7227C9.7132 10.7969 9.85653 10.8335 9.99987 10.8335C10.1432 10.8335 10.2857 10.7969 10.4149 10.7227L13.3882 9.01521L14.7999 9.61688L9.99987 12.3727L5.19987 9.61688L6.61153 9.01521L9.58487 10.7227ZM9.99987 4.23938L14.7999 6.28354L9.99987 9.03937L5.19987 6.28354L9.99987 4.23938ZM17.4982 9.45688C17.479 9.14104 17.2832 8.86354 16.9924 8.73937L15.199 7.97604L17.0815 6.89521C17.3557 6.73854 17.5165 6.43937 17.4982 6.12354C17.479 5.80854 17.2832 5.53021 16.9924 5.40604L10.3257 2.56687C10.1174 2.47771 9.88153 2.47771 9.6732 2.56687L3.00653 5.40604C2.7157 5.53021 2.51987 5.80854 2.50153 6.12354C2.48237 6.43937 2.64403 6.73854 2.9182 6.89521L4.79987 7.97604L3.00653 8.73937C2.7157 8.86354 2.51987 9.14104 2.50153 9.45688C2.48237 9.77271 2.64403 10.0719 2.9182 10.2285L4.79987 11.3094L3.00653 12.0727C2.7157 12.1969 2.51987 12.4744 2.50153 12.7902C2.48237 13.106 2.64403 13.4052 2.9182 13.5619L9.58487 17.3894C9.7132 17.4635 9.85653 17.5002 9.99987 17.5002C10.1432 17.5002 10.2857 17.4635 10.4149 17.3894L17.0815 13.5619C17.3557 13.4052 17.5165 13.106 17.4982 12.7902C17.479 12.4752 17.2832 12.1969 16.9932 12.0727L15.1999 11.3085L17.0815 10.2285C17.3557 10.0719 17.5165 9.77271 17.4982 9.45688Z" fill="white"/>
<mask id="mask0_810_7067" style="mask-type:alpha" maskUnits="userSpaceOnUse" x="2" y="2" width="16" height="16">
<path fill-rule="evenodd" clip-rule="evenodd" d="M14.7999 12.9502L9.99987 15.706L5.19987 12.9502L6.61153 12.3494L9.58487 14.056C9.7132 14.1302 9.85653 14.1669 9.99987 14.1669C10.1432 14.1669 10.2857 14.1302 10.4149 14.056L13.3882 12.3485L14.7999 12.9502ZM9.58487 10.7227C9.7132 10.7969 9.85653 10.8335 9.99987 10.8335C10.1432 10.8335 10.2857 10.7969 10.4149 10.7227L13.3882 9.01521L14.7999 9.61688L9.99987 12.3727L5.19987 9.61688L6.61153 9.01521L9.58487 10.7227ZM9.99987 4.23938L14.7999 6.28354L9.99987 9.03937L5.19987 6.28354L9.99987 4.23938ZM17.4982 9.45688C17.479 9.14104 17.2832 8.86354 16.9924 8.73937L15.199 7.97604L17.0815 6.89521C17.3557 6.73854 17.5165 6.43937 17.4982 6.12354C17.479 5.80854 17.2832 5.53021 16.9924 5.40604L10.3257 2.56687C10.1174 2.47771 9.88153 2.47771 9.6732 2.56687L3.00653 5.40604C2.7157 5.53021 2.51987 5.80854 2.50153 6.12354C2.48237 6.43937 2.64403 6.73854 2.9182 6.89521L4.79987 7.97604L3.00653 8.73937C2.7157 8.86354 2.51987 9.14104 2.50153 9.45688C2.48237 9.77271 2.64403 10.0719 2.9182 10.2285L4.79987 11.3094L3.00653 12.0727C2.7157 12.1969 2.51987 12.4744 2.50153 12.7902C2.48237 13.106 2.64403 13.4052 2.9182 13.5619L9.58487 17.3894C9.7132 17.4635 9.85653 17.5002 9.99987 17.5002C10.1432 17.5002 10.2857 17.4635 10.4149 17.3894L17.0815 13.5619C17.3557 13.4052 17.5165 13.106 17.4982 12.7902C17.479 12.4752 17.2832 12.1969 16.9932 12.0727L15.1999 11.3085L17.0815 10.2285C17.3557 10.0719 17.5165 9.77271 17.4982 9.45688Z" fill="white"/>
</mask>
<g mask="url(#mask0_810_7067)">
</g>
</svg>
