<svg width="90" height="90" viewBox="0 0 90 90" fill="none" xmlns="http://www.w3.org/2000/svg">
<path fill-rule="evenodd" clip-rule="evenodd" d="M25 35C29.14 35 32.5 31.64 32.5 27.5C32.5 23.36 29.14 20 25 20C20.86 20 17.5 23.36 17.5 27.5C17.5 31.64 20.86 35 25 35ZM75 80H17.805L52.83 50.775C54.06 49.73 56.29 49.735 57.495 50.77L80 69.97V75C80 77.76 77.76 80 75 80ZM15 10H75C77.76 10 80 12.24 80 15V56.82L63.985 43.16C59.035 38.95 51.29 38.95 46.385 43.13L10 73.49V15C10 12.24 12.24 10 15 10ZM75 0H15C6.73 0 0 6.73 0 15V75C0 83.27 6.73 90 15 90H75C83.27 90 90 83.27 90 75V15C90 6.73 83.27 0 75 0Z" fill="#8F9BB3" fill-opacity="0.24"/>
</svg>
