<svg width="44" height="36" viewBox="0 0 44 36" fill="none" xmlns="http://www.w3.org/2000/svg">
<path d="M27.3939 19.7265H37.1439V16.4765H27.3939V19.7265ZM27.3939 13.2265H37.1439V9.97652H27.3939V13.2265ZM6.81055 26.7682H24.1439V25.739C24.1439 24.2224 23.3765 22.9855 21.8418 22.0286C20.3071 21.0717 18.1855 20.5932 15.4772 20.5932C12.7689 20.5932 10.6474 21.0717 9.11263 22.0286C7.57791 22.9855 6.81055 24.2224 6.81055 25.739V26.7682ZM15.4729 17.3432C16.5591 17.3432 17.4904 16.9564 18.2668 16.1829C19.0432 15.4094 19.4314 14.4796 19.4314 13.3934C19.4314 12.3071 19.0446 11.3758 18.2711 10.5994C17.4976 9.82305 16.5678 9.43486 15.4815 9.43486C14.3953 9.43486 13.464 9.8216 12.6876 10.5951C11.9112 11.3686 11.523 12.2985 11.523 13.3847C11.523 14.4709 11.9098 15.4022 12.6833 16.1786C13.4568 16.955 14.3867 17.3432 15.4729 17.3432ZM3.56055 35.4349C2.69388 35.4349 1.93555 35.1099 1.28555 34.4599C0.635547 33.8099 0.310547 33.0515 0.310547 32.1849V4.01819C0.310547 3.15152 0.635547 2.39319 1.28555 1.74319C1.93555 1.09319 2.69388 0.768188 3.56055 0.768188H40.3939C41.2605 0.768188 42.0189 1.09319 42.6689 1.74319C43.3189 2.39319 43.6439 3.15152 43.6439 4.01819V32.1849C43.6439 33.0515 43.3189 33.8099 42.6689 34.4599C42.0189 35.1099 41.2605 35.4349 40.3939 35.4349H3.56055ZM3.56055 32.1849H40.3939V4.01819H3.56055V32.1849Z" fill="#3BC3C4"/>
</svg>
