<svg width="43" height="29" viewBox="0 0 43 29" fill="none" xmlns="http://www.w3.org/2000/svg">
<path d="M1.6377 28.2682C1.17728 28.2682 0.791431 28.1115 0.480154 27.7981C0.168515 27.485 0.0126953 27.0968 0.0126953 26.6335C0.0126953 26.1705 0.168515 25.7856 0.480154 25.4786C0.791431 25.1717 1.17728 25.0182 1.6377 25.0182H20.0544C20.5148 25.0182 20.9008 25.175 21.2124 25.4884C21.5237 25.8015 21.6794 26.1897 21.6794 26.653C21.6794 27.1159 21.5237 27.5009 21.2124 27.8078C20.9008 28.1148 20.5148 28.2682 20.0544 28.2682H1.6377ZM1.6377 16.8932C1.17728 16.8932 0.791431 16.7365 0.480154 16.4231C0.168515 16.11 0.0126953 15.7218 0.0126953 15.2585C0.0126953 14.7955 0.168515 14.4106 0.480154 14.1036C0.791431 13.7967 1.17728 13.6432 1.6377 13.6432H9.22103C9.68145 13.6432 10.0675 13.8 10.3791 14.1134C10.6904 14.4265 10.846 14.8147 10.846 15.278C10.846 15.7409 10.6904 16.1259 10.3791 16.4328C10.0675 16.7398 9.68145 16.8932 9.22103 16.8932H1.6377ZM1.6377 5.51823C1.17728 5.51823 0.791431 5.36151 0.480154 5.04806C0.168515 4.73498 0.0126953 4.34679 0.0126953 3.88348C0.0126953 3.42054 0.168515 3.03559 0.480154 2.72865C0.791431 2.4217 1.17728 2.26823 1.6377 2.26823H9.22103C9.68145 2.26823 10.0675 2.42495 10.3791 2.7384C10.6904 3.05148 10.846 3.43967 10.846 3.90298C10.846 4.36592 10.6904 4.75087 10.3791 5.05781C10.0675 5.36476 9.68145 5.51823 9.22103 5.51823H1.6377ZM26.0127 21.7682C23.0155 21.7682 20.4606 20.712 18.3481 18.5995C16.2356 16.487 15.1794 13.9321 15.1794 10.9349C15.1794 7.93767 16.2356 5.38281 18.3481 3.27031C20.4606 1.15781 23.0155 0.101562 26.0127 0.101562C29.0099 0.101562 31.5648 1.15781 33.6773 3.27031C35.7898 5.38281 36.846 7.93767 36.846 10.9349C36.846 12.0905 36.6655 13.2099 36.3044 14.2932C35.9432 15.3766 35.4016 16.3877 34.6794 17.3266L42.2085 24.8557C42.5335 25.1807 42.696 25.5599 42.696 25.9932C42.696 26.4266 42.5335 26.8057 42.2085 27.1307C41.8835 27.4557 41.5044 27.6182 41.071 27.6182C40.6377 27.6182 40.2585 27.4557 39.9335 27.1307L32.4044 19.6016C31.4655 20.3238 30.4544 20.8655 29.371 21.2266C28.2877 21.5877 27.1683 21.7682 26.0127 21.7682ZM25.9997 18.5182C28.1028 18.5182 29.8946 17.7823 31.3752 16.3104C32.8558 14.8381 33.596 13.0506 33.596 10.9479C33.596 8.84478 32.8601 7.05295 31.3882 5.5724C29.9159 4.09184 28.1284 3.35156 26.0257 3.35156C23.9226 3.35156 22.1308 4.08751 20.6502 5.5594C19.1696 7.03165 18.4294 8.81915 18.4294 10.9219C18.4294 13.025 19.1653 14.8168 20.6372 16.2974C22.1094 17.778 23.8969 18.5182 25.9997 18.5182Z" fill="#B16FEF"/>
</svg>
