<svg width="20" height="20" viewBox="0 0 20 20" fill="none" xmlns="http://www.w3.org/2000/svg">
<path fill-rule="evenodd" clip-rule="evenodd" d="M14.5013 16.668C8.3438 16.668 3.33464 11.658 3.33464 5.5013C3.33464 4.3063 4.3063 3.33464 5.5013 3.33464C5.59214 3.33464 5.68214 3.34047 5.7738 3.35214L6.65797 7.20297C6.54865 7.25984 6.43166 7.32103 6.31754 7.38071L6.31729 7.38084L6.20964 7.43714C5.4913 7.81214 4.92464 8.1088 5.22214 8.76297C6.20214 11.5513 8.4513 13.8013 11.2063 14.768C11.9082 15.0492 12.1806 14.5284 12.5571 13.8083L12.5621 13.7988C12.6054 13.7169 12.6499 13.6314 12.694 13.5468L12.6941 13.5466C12.7299 13.478 12.7653 13.4099 12.7996 13.3446L16.6496 14.228C16.6621 14.318 16.668 14.4088 16.668 14.5013C16.668 15.6963 15.6963 16.668 14.5013 16.668ZM18.1271 13.258C18.033 12.9871 17.8063 12.7838 17.5263 12.7196L12.5563 11.5788C12.2821 11.5171 11.9955 11.5946 11.793 11.7896C11.6738 11.903 11.6713 11.9063 11.1296 12.9405C9.35464 12.1321 7.90047 10.683 7.0638 8.8713C8.0963 8.33047 8.0988 8.32797 8.21297 8.20964C8.40797 8.0063 8.4863 7.71964 8.4238 7.4463L7.28297 2.4763C7.2188 2.1963 7.01464 1.9688 6.7438 1.87464C6.54547 1.8063 6.3413 1.75464 6.13964 1.72214C5.93214 1.6863 5.71797 1.66797 5.5013 1.66797C3.38714 1.66797 1.66797 3.38714 1.66797 5.5013C1.66797 12.578 7.42464 18.3346 14.5013 18.3346C16.6146 18.3346 18.3346 16.6155 18.3346 14.5013C18.3346 14.2863 18.3155 14.0738 18.2805 13.8671C18.2471 13.6588 18.1955 13.4546 18.1271 13.258ZM10.8343 6.66797C12.2126 6.66797 13.3343 7.78964 13.3343 9.16797C13.3343 9.6288 13.7068 10.0013 14.1676 10.0013C14.6285 10.0013 15.001 9.6288 15.001 9.16797C15.001 6.87047 13.1318 5.0013 10.8343 5.0013C10.3743 5.0013 10.001 5.3738 10.001 5.83464C10.001 6.29547 10.3743 6.66797 10.8343 6.66797ZM16.6676 9.16797C16.6676 5.95214 14.0501 3.33464 10.8343 3.33464C10.3743 3.33464 10.001 2.96214 10.001 2.5013C10.001 2.04047 10.3743 1.66797 10.8343 1.66797C14.9701 1.66797 18.3343 5.03214 18.3343 9.16797C18.3343 9.6288 17.9618 10.0013 17.501 10.0013C17.0401 10.0013 16.6676 9.6288 16.6676 9.16797Z" fill="white"/>
</svg>
